# xmcd CD database file
#
# Track frame offsets:
#	150
#	10734
#	23598
#	37838
#	48741
#	66868
#	88367
#	105678
#	113879
#	121709
#	137952
#	147845
#	160100
#	170529
#
# Disc length: 2502 seconds
#
# Revision: 0
# Processed by: cddbd v1.5.1PL0 Copyright (c) Steve Scherf et al.
# Submitted via: CDex 1.51
#
DISCID=b809c40e
DTITLE=Various Artist - Sommerfest Seidlvilla 2004
DYEAR=2004
DGENRE=Jazz
TTITLE0=Müllers Büro - Nevertheless
TTITLE1=Müllers Büro - An Irish Blessing
TTITLE2=Müllers Büro - Serenata
TTITLE3=Müllers Büro - Java Jive
TTITLE4=Müllers Büro - Regreso
TTITLE5=Müllers Büro - Georgia
TTITLE6=Müllers Büro - Black Orpheus
TTITLE7=Munich Blue Notes - Fernando
TTITLE8=Munich Blue Notes - Smile
TTITLE9=Munich Blue Notes - Sunshine Of My Life
TTITLE10=Munich Blue Notes - Somebody Loves Me
TTITLE11=Gisella - Miss Otis Regrets
TTITLE12=Gisella - I Love Paris
TTITLE13=Gisella - Do I Love You
EXTD=YEAR: 2004
EXTT0=
EXTT1=
EXTT2=
EXTT3=
EXTT4=
EXTT5=
EXTT6=
EXTT7=
EXTT8=
EXTT9=
EXTT10=
EXTT11=
EXTT12=
EXTT13=
PLAYORDER=
